
<svg width="48" height="48" viewBox="0 0 48 48" fill="none" xmlns="http://www.w3.org/2000/svg">
<path fill-rule="evenodd" clip-rule="evenodd" d="M11.5 27C16.1944 27 20 23.1944 20 18.5C20 15.8925 18.8259 13.5592 16.9775 12H32C32.5523 12 33 12.4477 33 13V17.1111C33 17.6634 33.4477 18.1111 34 18.1111H37.4807C37.8062 18.1111 38.1114 18.2696 38.2987 18.5359L42.818 24.9634C42.9365 25.1318 43 25.3327 43 25.5386V33C43 33.5523 42.5523 34 42 34H40.9725C40.7238 31.75 38.8163 30 36.5 30C34.1837 30 32.2762 31.75 32.0275 34H19.9725C19.7238 31.75 17.8163 30 15.5 30C13.1837 30 11.2762 31.75 11.0275 34H8C7.44772 34 7 33.5523 7 33V25.7124C8.30503 26.5284 9.84744 27 11.5 27ZM34 20H37.2397C37.4028 20 37.5557 20.0796 37.6493 20.2133L40.6696 24.528C40.8088 24.7268 40.6665 25 40.4238 25H34C33.7239 25 33.5 24.7761 33.5 24.5V20.5C33.5 20.2239 33.7239 20 34 20Z" fill="#8D2626"/>
<path fill-rule="evenodd" clip-rule="evenodd" d="M17 34.5C17 35.3284 16.3284 36 15.5 36C14.6716 36 14 35.3284 14 34.5C14 33.6716 14.6716 33 15.5 33C16.3284 33 17 33.6716 17 34.5ZM19 34.5C19 36.433 17.433 38 15.5 38C13.567 38 12 36.433 12 34.5C12 32.567 13.567 31 15.5 31C17.433 31 19 32.567 19 34.5ZM38 34.5C38 35.3284 37.3284 36 36.5 36C35.6716 36 35 35.3284 35 34.5C35 33.6716 35.6716 33 36.5 33C37.3284 33 38 33.6716 38 34.5ZM40 34.5C40 36.433 38.433 38 36.5 38C34.567 38 33 36.433 33 34.5C33 32.567 34.567 31 36.5 31C38.433 31 40 32.567 40 34.5Z" fill="#8D2626"/>
<path fill-rule="evenodd" clip-rule="evenodd" d="M17 18.5C17 21.5376 14.5376 24 11.5 24C8.46243 24 6 21.5376 6 18.5C6 15.4624 8.46243 13 11.5 13C14.5376 13 17 15.4624 17 18.5ZM19 18.5C19 22.6421 15.6421 26 11.5 26C7.35786 26 4 22.6421 4 18.5C4 14.3579 7.35786 11 11.5 11C15.6421 11 19 14.3579 19 18.5ZM11.75 16C11.75 15.5858 11.4142 15.25 11 15.25C10.5858 15.25 10.25 15.5858 10.25 16V17.5V19C10.25 19.4142 10.5858 19.75 11 19.75H15C15.4142 19.75 15.75 19.4142 15.75 19C15.75 18.5858 15.4142 18.25 15 18.25H11.75V17.5V16Z" fill="#8D2626"/>
</svg>
