<svg width="48" height="35" viewBox="0 0 190 192" fill="none" xmlns="http://www.w3.org/2000/svg">
<path d="M29.9411 0.549266C28.9216 0.542579 27.8738 0.635664 26.8703 0.573828H0.557929L0.403572 0.647406L0.354411 0.671061C0.216816 7.19713 0.335616 13.7676 0.296072 20.3109C0.947311 20.9328 2.23392 20.424 3.12051 20.6166C8.56635 20.7136 14.0104 20.7798 19.4509 21.0336C30.0666 43.4673 40.8324 65.8326 51.1993 88.3837C51.5964 89.5996 52.7299 90.8249 52.0927 92.1598C50.2167 97.0059 47.4514 101.494 45.0312 106.097C42.6493 110.661 39.8805 115.101 38.3889 120.063C38.5219 123.583 37.9371 127.264 39.3171 130.616C41.3616 136.573 46.6054 141.261 52.7131 142.725C57.181 143.294 61.708 143.075 66.2021 143.194C101.095 143.36 135.988 143.313 170.881 143.349C171.5 142.696 170.963 141.408 171.142 140.519V124.133C170.49 123.512 169.202 124.041 168.314 123.858C133.864 123.73 99.4139 123.372 64.9624 123.312H59.8749C59.6843 120.38 61.4538 117.808 62.5908 115.249C64.2493 112.106 65.8438 108.844 67.6497 105.821C90.868 105.446 114.116 105.624 137.34 105.142C140.759 105.041 144.401 105.043 147.386 103.118C151.438 100.8 153.732 96.5324 156.176 92.7335C163.397 80.5834 170.049 68.1064 176.885 55.7379C180.928 48.1918 185.209 40.7568 188.775 32.9669C190.831 28.7979 188.99 23.2865 185 21.0101C182.399 20.0277 179.531 20.3319 176.806 20.1331C153.904 19.6701 130.993 19.6897 108.088 19.529C85.5565 19.4058 63.0247 19.3465 40.493 19.162C37.4289 13.096 34.6438 6.87204 31.7276 0.725809C31.1529 0.594634 30.5514 0.554078 29.9398 0.549992L29.9411 0.549266ZM151.592 149.855C143.565 149.91 135.886 155.103 132.842 162.531C129.673 169.776 131.096 178.766 136.455 184.605C140.64 189.33 147.029 192.112 153.362 191.556C163.153 191.186 171.987 182.851 172.776 173.054C173.227 168.459 172.378 163.683 169.854 159.765C166.077 153.51 158.877 149.671 151.592 149.855ZM57.1034 149.858C48.9532 149.839 41.198 155.185 38.1278 162.704C36.5086 166.356 36.3448 170.476 36.8316 174.387C38.0054 181.02 42.5482 186.929 48.6943 189.703C51.7363 191.181 55.1455 191.763 58.5116 191.523C64.7293 191.431 70.6492 188.003 74.2996 183.044C77.4427 178.845 78.8234 173.425 78.1461 168.228C77.276 159.427 70.0718 151.671 61.3312 150.213C59.9377 149.957 58.519 149.839 57.1023 149.857L57.1034 149.858Z" fill="#8D2626"/>
</svg>
